Coordinates
version=1
nRows=43
nColumns=12
inDegrees=yes

Units are S.I. units (second, meters, Newtons, ...)
Angles are in degrees

endheader
time	SC_y	SC_z	SC_x	AC_y	AC_z	AC_x	GH_y	GH_z	GH_yy	EL_x	PS_y
       0.0              -51.98          21.47           35.0          54.81         -8.131         0.1139         -95.58          38.04         -93.67          69.11           36.9
   0.04259              -51.98          21.47          35.01          54.81         -8.132         0.1148         -95.54          38.05         -93.67           69.1          36.91
   0.08518              -51.98          21.47          35.01          54.81         -8.132         0.1157          -95.5          38.05         -93.68          69.09          36.93
    0.1278              -51.98          21.47          35.01          54.81         -8.133         0.1166         -95.45          38.06         -93.68          69.08          36.94
    0.1704              -51.98          21.48          35.01          54.81         -8.134         0.1177          -95.4          38.07         -93.68          69.07          36.96
     0.213              -51.99          21.48          35.01          54.81         -8.135         0.1187         -95.35          38.08         -93.68          69.06          36.98
    0.2556              -51.99          21.48          35.01          54.81         -8.135         0.1199          -95.3          38.09         -93.68          69.05           37.0
    0.2981              -51.99          21.48          35.01          54.81         -8.136         0.1212         -95.24           38.1         -93.69          69.04          37.02
    0.3407              -51.99          21.49          35.02          54.81         -8.137         0.1225         -95.17          38.11         -93.69          69.02          37.05
    0.3833              -51.99          21.49          35.02          54.81         -8.138         0.1239         -95.11          38.12         -93.69          69.01          37.07
    0.4259              -51.99           21.5          35.02          54.81         -8.139         0.1255         -95.03          38.13         -93.69          68.99           37.1
    0.4685              -51.99           21.5          35.02          54.81          -8.14         0.1271         -94.96          38.14          -93.7          68.98          37.13
    0.5111              -51.99           21.5          35.02          54.81         -8.142         0.1289         -94.87          38.15          -93.7          68.96          37.16
    0.5537              -51.99          21.51          35.03          54.81         -8.143         0.1308         -94.78          38.17          -93.7          68.94          37.19
    0.5963              -51.99          21.51          35.03          54.81         -8.145         0.1329         -94.68          38.18         -93.71          68.92          37.23
    0.6389               -52.0          21.52          35.03          54.81         -8.146         0.1352         -94.58           38.2         -93.71          68.89          37.27
    0.6815               -52.0          21.53          35.04          54.81         -8.148         0.1377         -94.46          38.22         -93.71          68.87          37.31
    0.7241               -52.0          21.53          35.04           54.8          -8.15         0.1403         -94.33          38.24         -93.72          68.84          37.35
    0.7667               -52.0          21.54          35.04           54.8         -8.152         0.1433         -94.19          38.26         -93.72          68.81           37.4
    0.8092               -52.0          21.55          35.05           54.8         -8.154         0.1465         -94.04          38.29         -93.73          68.78          37.46
    0.8518              -52.01          21.56          35.05           54.8         -8.156           0.15         -93.88          38.31         -93.74          68.74          37.52
    0.8944              -52.01          21.57          35.06           54.8         -8.159         0.1539          -93.7          38.34         -93.74           68.7          37.59
     0.937              -52.01          21.58          35.06           54.8         -8.162         0.1581         -93.49          38.37         -93.75          68.66          37.66
    0.9796              -52.01          21.59          35.07           54.8         -8.165         0.1629         -93.27          38.41         -93.76          68.61          37.74
     1.022              -52.02           21.6          35.07          54.79         -8.169         0.1681         -93.02          38.45         -93.77          68.56          37.83
     1.065              -52.02          21.62          35.08          54.79         -8.173          0.174         -92.75          38.49         -93.78           68.5          37.94
     1.107              -52.03          21.63          35.09          54.79         -8.178         0.1806         -92.43          38.54         -93.79          68.43          38.05
      1.15              -52.03          21.65           35.1          54.79         -8.183          0.188         -92.09           38.6          -93.8          68.36          38.18
     1.193              -52.04          21.67          35.11          54.78         -8.189         0.1964         -91.69          38.66         -93.82          68.27          38.32
     1.235              -52.04           21.7          35.12          54.78         -8.195         0.2059         -91.24          38.73         -93.83          68.17          38.49
     1.278              -52.05          21.72          35.14          54.77         -8.203         0.2167         -90.73          38.82         -93.85          68.06          38.67
      1.32              -52.06          21.76          35.15          54.77         -8.212         0.2292         -90.15          38.91         -93.87          67.94          38.89
     1.363              -52.07          21.79          35.17          54.76         -8.222         0.2435         -89.47          39.02          -93.9          67.79          39.14
     1.406              -52.08          21.83          35.19          54.76         -8.233         0.2602         -88.68          39.14         -93.93          67.62          39.42
     1.448              -52.09          21.88          35.22          54.75         -8.247         0.2798         -87.76          39.29         -93.96          67.42          39.76
     1.491              -52.11          21.94          35.25          54.74         -8.263         0.3028         -86.67          39.46          -94.0          67.19          40.16
     1.533              -52.12          22.01          35.28          54.73         -8.282         0.3302         -85.38          39.67         -94.05          66.91          40.63
     1.576              -52.15          22.09          35.33          54.72         -8.305          0.363         -83.84          39.92          -94.1          66.57           41.2
     1.618              -52.17          22.19          35.38           54.7         -8.333         0.4027         -81.97          40.22         -94.17          66.17          41.88
     1.661               -52.2          22.31          35.44          54.68         -8.367         0.4512         -79.68          40.58         -94.26          65.68          42.72
     1.704              -52.24          22.46          35.52          54.66         -8.409          0.511         -76.86          41.03         -94.36          65.07          43.75
     1.746              -52.29          22.65          35.61          54.63         -8.461         0.5856         -73.34           41.6         -94.49          64.31          45.04
     1.789              -52.35          22.89          35.73          54.59         -8.526         0.6796         -68.91           42.3         -94.65          63.35          46.66
